<mxfile host="65bd71144e">
    <diagram id="Wfn28xWpwnkqVPSQaL2q" name="페이지-1">
        <mxGraphModel dx="2585" dy="742" grid="1" gridSize="10" guides="1" tooltips="1" connect="1" arrows="1" fold="1" page="1" pageScale="1" pageWidth="1169" pageHeight="827" math="0" shadow="0">
            <root>
                <mxCell id="0"/>
                <mxCell id="1" parent="0"/>
                <mxCell id="9" value="" style="group" vertex="1" connectable="0" parent="1">
                    <mxGeometry x="-80" y="120" width="260" height="320" as="geometry"/>
                </mxCell>
                <mxCell id="5" value="" style="rounded=0;whiteSpace=wrap;html=1;fillColor=#f5f5f5;fontColor=#333333;strokeColor=#666666;" vertex="1" parent="9">
                    <mxGeometry x="-2200" y="-40" width="120" height="300" as="geometry"/>
                </mxCell>
                <mxCell id="6" value="Rom" style="rounded=0;whiteSpace=wrap;html=1;fillColor=#dae8fc;strokeColor=#6c8ebf;" vertex="1" parent="9">
                    <mxGeometry x="-2200" y="-60" width="50" height="20" as="geometry"/>
                </mxCell>
                <mxCell id="10" value="" style="group" vertex="1" connectable="0" parent="1">
                    <mxGeometry x="-1880" y="60" width="260" height="320" as="geometry"/>
                </mxCell>
                <mxCell id="11" value="" style="rounded=0;whiteSpace=wrap;html=1;fillColor=#f5f5f5;fontColor=#333333;strokeColor=#666666;" vertex="1" parent="10">
                    <mxGeometry y="20" width="260" height="300" as="geometry"/>
                </mxCell>
                <mxCell id="12" value="CORE" style="rounded=0;whiteSpace=wrap;html=1;fillColor=#dae8fc;strokeColor=#6c8ebf;" vertex="1" parent="10">
                    <mxGeometry width="50" height="20" as="geometry"/>
                </mxCell>
                <mxCell id="16" value="" style="edgeStyle=none;html=1;" edge="1" parent="1" source="11" target="14">
                    <mxGeometry relative="1" as="geometry"/>
                </mxCell>
                <mxCell id="17" value="" style="edgeStyle=none;html=1;" edge="1" parent="1" source="5" target="11">
                    <mxGeometry relative="1" as="geometry"/>
                </mxCell>
                <mxCell id="18" value="" style="shape=image;verticalLabelPosition=bottom;labelBackgroundColor=default;verticalAlign=top;aspect=fixed;imageAspect=0;image=data:image/png,iVBORw0KGgoAAAANSUhEUgAAAsQAAAAhCAYAAADeQ72bAAAACXBIWXMAABQgAAAUHAGDAP2+AAAUjklEQVR4nO2df1Cd1ZnHPzYi1NgUovFCg8Pc+CPCzt0OmN3BRBIlGR1ImqZQpyNsYmJIrYGyslBNU2pkQ2JUmNhsoKsBk4rgpgpGNGR0yZ0aKsExQjvsQJKO3GaECWin3GVDehmGcf+47/19L1y4T/TYnM9MZu77gyfve77v85xz3vec51zDbT/4Ao1Go9FoNBqN5irlG1/1BWg0Go1Go9FoNF8lukGs0Wg0Go1Go7mq0Q1ijUaj0Wg0Gs1VzderQbzvAF/8qcX492sak2b+k9KGBuP8A9Rd+SvUaDQajUaj0XzNuDboXksav/jR98m9ZwnJN80nJtrYPzWJY+yv9HzUwcHnmmi6MJN5M4WVmylctQTzovnEzHPudYzZsfWconL3kTBshGKSv835b+eKibzHH6Ys10Ky3/30d7VTFVaZgHldHlWPrCHzjlhiXWU7Mc7w+V7qX/4N5e+MzGzEkkXdE1nkpiZ6bExNYr9wlubGIxS8YvtybLg0vv9OkuOi3Hsdo4N0vneCsvIT9HwpNmS0kUAZfQ1SN5XQ+K8ZJC8AGMe6dyOrD4d9NwLaGCRlUFWZR2G6iRiAgXaueaA27PuQQEQbg4jKVVBfLFk07ssj7475ANi7jhC3sTXMPxbUN0IktFHN9yJDlbioUL1nEFlMk0DQbyLyX4MIY6syvmcgou8cyvWaYFkmShsaqEqfP/1/NjFIfXExBdbgh815JRwvdd3Q3GwEsKWC0Z0WYgEYpP72Ygpm+BPPvYR3fkiSMmisLSLvjqjQ54zZqPlZKUUh78dE3vO/oH5DovOhDco4Pa/sJ213d8gzUgsraPuphfh5oc6YZNjayPJHWwkVuiVsYPkhJ1/MI3NRyEvFMdxN+b9UUh0qYErYENFGAnX0BQICguv/Dzu4SGgDgIm8ndupzLNgjvba/aU2iGW0ASIuVzF9MVP4fAmV30sk1stW2BWqmL6RIqGNYr4XKarERYXqPSDymCaBmN9E6L9A5LFVHd8DhPSde7nOY2Hy0/47l+fkcP/Cy/T/sY/W1neoPnqKlv+2MTwF3zKZWBQNXLuAtHtSuHTod5z2N7BsO52/uo/kbwJMMtz7R46+6bTTMxxNgjlhZhvBSL2PHRlGD2jsAk0vzfx3y3NyuD/xOmCMnv84wSz7XQZp1P3233j4NiMojA3SdvQdnn613fd+ouP453tSuPTe7zj9v4FWsvc9Q2OO8dBMjdPfcZJf1bxDfa+db970HW6/8TrgOhK+excr/9bJK93jATbMBRV0llm46RsAk9jOdFJb38KLp4aYmH8jt3/nBq5lHjeY/4H7Fw9Q037xitggaT0nX91I5o3OTcfQOX7b9Cb7jnZz9vIN3GK+ibhr4dobElh5z430vPoRf7oSNoS0kUAVfZ0B4d95r/w+/mnRdX7HJrF1vMkrf5jhZkS0AfO6zTS/VEzZygTirgWm8AzUGh2g4tWPZrgQGSS0kShXGX2db1CsL2/j4e8uIOYb+JSrY/APPPvmuekvREhfCSS0Ucf3BFAmLqpT74nENAmE/CZi/0Umtqrie1L6RlquQd8Qmy1m6LUF7wEnredky2YyFzgv9HTNj1j+QuBp2fsO0Lwuira9T5PbNBJo4/XNZMY5N/ubHyNlRxiv0zdVMPpL4w3xWC9ld+2ieoY/kXhDbN5ZTd8WMzGAY6CDrT/e7/uJyO9+hq21JDza7mskaTPdx9eTGg1MDNK0Yw/5Pp8QTJQ2VHnezH/eTcHySup9jKzheOd2shcBjGN94SlW1/iqlL3vAM25xsM5YaN6bSllF6RtwNYXX6Yu0/mu3t7VRObGN3w/EWVup+/AGpKjASbpOVxM2t4RcRsi2kigir652+nbucbzZWZskKbqduJLXT4bXm87cm0sVB7ZTukKowPLJMNdJ9g6lMbx3ETnKV/WG2IJbUTKVcZ/644/zFb3G5Rx+o81UR+f577+cN6ESPieCBLaqOJ7QqgSF5Wp94RimgSRayPhv0KxVRXfE4qtEnEx6KQ6W6jGMMCFVurP2I2NKOIXm4Ke1rZjDylrHwtsDBs2CqyD7s3klKxpL9LNKyO4++QTk1yh/rkfGRxcZzYevBHant0fOF7qQiurn+1m2NiMT1/NL/xOydu50vnQADbrEb+Hxmm7euNvaPvc2FxkYWuh3yk7s4yADY4/nKCgJlClth17qO83NqLN5DxukbfBZgpXOYMCl89RU/5G4Hgpay1rj7psR5GamUemuA0ZbSRQRl8WEmcEFnvvCfJzislvmu3dSGjzGbELjYA9MULbCztI2HiEttleigAi2kiUq4i+kBBnBP0xGzUlZaT87MQsL0RCXxkktFHH9yRQJS4qVO+JxDQJZPwmcv+Via3K+J6QvpGX6xyzTDSNXgrjrBFs0/SebedGcTWrib5+9hfxf39lTj6RlEFlTTUXPz7qyVjxPw30PZ9FarDzN6wizTVWqL+bslDjpJrfonPI+H39EtY+7n0wg3yL4UhTNtqqQ42jaaf6jOuBiiL13jyfo1XpZuOXHet/NYXotIxQZD2Hw9gyp2b5OKSEDXZaSDXG5gx/dJLyEDrbdn/M6cvGRtIdFK4QtiGijQTq6EvzW1gH7Jw+vJ+0nENzm0gooQ0jFL3by/CFLooeeoy1QRoYXw4y2kiUq4i+tFP94SDDZ1rJzymlaBYTVdyI6CuBhDYK+Z4EqsRFheo9kZgmgYjfCPivSGxVx/dk9JUo11BZJmagdLHxjYRJhoeuwGe0kNSScnsEn1h9Pmd4ET2f5A3b6PxHM7kP1Pr2tNJvJt74aTsXaiKFmcLnt5HpOpEozMkZQIexbcHsCi6DgyEH2qduKuHgCs8b95jFS8gDo+G/ntTFxoGxT7E2B7dhXreZug1LPIPb401kA1YxG1CafLPxa5y+rhDDD5IyqKrMINXd1zFhXgV8IGdDRhsJVNEXoJf8Bx6Z4304EdEGoGYXCTURXYoAEtpA5OUqpS9YS4pJiOBKxPSNGAltVPK9yFEmLipT74FETJNAym8i9V9AILaq4nsgpa9Euc6+QZy5na2prvEgvdQHGT8cDualcUa2CLBf/DLeHpnIP5DoTCE3McLpEx00fvApscuyKdqwlPhoiFmyhoMHulhS7OnpeBr/49j6Ahv/5nWbady5nrv9ZpzGLrzFs7HF5BbKfvGTwOCSlEHVvi2ULov13T9/PinujUQSXGNs/jISZOy0mcKaJ6i63+Q703Pe9ZhXYDikhA1Ivtk1TmcUW5DkzqmbnqD5iXTfWa9AbLwF6BWzIaKNBMroK4OENsogoo0EWt8AJLTRvgfIx0V16j11UMZvJFDG99Qi/AZxkoWtP8yiNC/d+YZ1YpD6cv+JCeGSRlW6MfgbO51vz36sx+yJIiYaHBe6KNv6HDWu3syxDvb0lHNxXxrxgHnF9yml2x0Ukxe6nOASwz6vAtKoatjmyfsHMDGJIzqKGCBmgddDcKun8T86/KHPVWU/WcHBjd4pUyZxTDivlevnu3vpbPJ6+D4b9LERLMWdYwIjf/QNxN6BM2hL2CALsytWjo3S720kKYvGWr+UKROTEO2cpRwXZ8YZGCRsCGkjgSr6iiCjjTJIaCOB1jcQCW207wHycVGZek8ZFPIbCVTxPcWYdgxx3bstnnG27RXU/SSd5AXguNBN+UOzyB/sR/bz28gxPlE5+k9RFOITlTSOgXZy13g1hl00H+L4gPF7wS1kbvA65u4yeBYCSd1UQt/H5ZSme2Z52rpayV/7fvBPS17dDseU0du2ZNF4vIHjBZ6HxjHUS3VJMY1DgSYIlhczKYOqhl/TV5HhO0NzdynlPUFSm0jYICqIHRN5OysYOL7NExSmxuk/doi06rOeseKiNpDRRgJV9BVBSBtVkNBGAq1vIBLaaN8LRLTO+orrPWVQyG8kUMX3FGNOk+piktKofO1lOisyMM98ug/mggoaNxjjSSZs1Pz0yJVNcO5mhJYf14aYiTmC9c+uxzcW87IQJpIyqGp4mc5f+gfJHSzZGO6qe04nuvhaoBMtv3cXZWEOBk/dVEJfS0lgcMopJj/MlZQkbDgdoIrGLX4OUOac5RnWaj0SNkS0kUAdfUWQ0EYZZLSRQOvrj4Q22vcCkIiLCtV7yqCM30igju991Uw7ZKLggRyvvL0mMrMyyMldSf49icRGx3J3Xgmdi+NIKAhvuQtX4vNYgCk71heeuyJ5HIMz/VLPTaOXaHR9AAhaKibyj5d4lrFmEtv7r5NbECT1yjSY1x2gMdprqcehbip/WsmeWXxRiU3Npzvda+WgMRs1u56b1cxKCRvMv5PK1y3upTyZGqfn6Evk7uoIv5MjYUNIGwlU0VcEEW3UQUIbCbS+gUhoo33PH4m4qE69pwwK+Y0EqvieCsziDfEI1hNvUFRQTNz2dvonnHvjV2XRGEY6HnNBOZ2Pu5bEHMda9XNW16nfa+j/zPV5LModFBzDzk8AS/yDwoaFuIYZOca8Pph4pZiLcT00E3ash/eTcq//Q5NBwreMn5fH3TkeOeyVg9n94BmfZ+4KTDOS8G3PGDD7eUEbtGL7i/FzXpQ7KNjPd1D04EbS/INCwg2ecUajNkEbQtpIoIq+IshoowwS2kig9Q1EQhvte4B8XFSm3lMGhfxGAlV8TzHmlHYNay3VXcuoWxULmEj9HtNOLHC9GXY3hl946mvRGAboGb0EeH0CeLuJ/FCfRFLi3IPFL170ehrOjzMKnqwa5zso37GfmqC9p1tJWGj8HB31Suljx34ZMNK5OIZ6qamqDfEpIoPkm4yfl+30u7WRsAHDY5OAywFGsDY1UbA3eO84L8krRd+A54YlbIhoI4Ey+sogoY0yiGgjgdY3AAlttO9xJeKiOvWeOijjNxIo43tqMacxxADW0YmwzvNpDE/ZsT5bFrAkpgp4p5m56LXctbXnM8/g+OFeiqYZH1SZ6sqcMY6tx+up+OAstjHXxgjWvaEeGuDxpSS7ep+fnvV6cE7S5+5WTdJzbJpxOSvuJtmVDmf4U69MIBI2oP4Tz984+jtYHSIogIXcpS53GaHvTVkbItpIoIy+Mkhoowwi2kig9Q1AQhvte1yJuKhOvacOyviNBMr4nlrMsUFsonSpK9GybwPSG3NBBd1PGo3hCTttyg6TWEPmrUZv+PIgVu81sw/30u9adWbxnZTmhjCxYjs5FqP3+Pk5mnzW3W7Fen7S+G1i+ZY1IYxYqMtaakzksNN5zHts9ghN7nyQUdyduS3khMbSn1jcx3p+3+zltBI2wPa2Z2nvGMtdHEwKYWTLD8l0Jbzv72WP1xhuCRsy2kigir4yiGijDBLaSKD1DURCG+17VyQuKlPvqYM6fiOBKr6nFnNqEGc/+Tj5ycZGiAZGaqGzMRwLMDFCy96fs1bJxrCJvJpc9zr2w10n2eNz/A3quzwZKLKfrKA0wBHSqHtqlbsH1H/qrYA3B3ve6PWs+b7qYU4WmPAne9828pcYGwNnqPZLR2d94UN6XC/mk9dwfF9agA1zQQXl6a41vXtp3O1b5hI2+KCJln7DEeaZ2frSdrL9jSSt5+Rjhv6MY33zkG/lIWFDSBsJVNFXBBFt1EFCGwm0voFIaKN970rERXXqPWVQyG8kUMX3VOIabvvBF767zGRvSHSPC3Gz4BYyly1l+bI7SV7kGkczSH1xkHzEWyoY3Wlx23B8PohtdIYrGTtL5UO1Xsv5yVDa0EBV+nxgkv7322l852PajnXTY2TNyNuUTf6yWGfvZbSXsgd3BS5BmLSek69vJtOdmHuQtmOnaOwdwWxZRf6GNHc6GsdAe+DyzwCYKG2oMq4F57is35+i8Z2z2OLvJP97K8l2pSsJVa5A9r4DNOcmetIBnemi6cQZ+riFtVkZ5CxzpQoadw5PCdIJkbDhvwy2Y+gcLW+f4vgnkLJiJXlZS93paOxdR0jbGGT5TwkbItpIoIq+GdS99iDLF3jviyLhVhOxrk9WFwa56D3i6c+nSCl8w9eMhDaFT9CXnei7b4GJ5Hgjfly20z94yevgOJ2Hfk7BscByiQwJbWTKVcL38iqfody1WqhBzKJEz8IBoyP0fz7pdXSQxrXP+Xb0JfQVQUIbVXxPCFXiojL1nlBMk0BAGxH/FYmtqviejL4S5RqkQbydvj+tIZnpmXbiwb4DfJGbGLh/OsZ6KbtrV5BlMyPD0yCeHsdQN+UPV4Zcj5vMbXQ/n0XqghDHCbIKXgBpHGwtoTB5muuZGKFl79PkNoUKtiZKX3yGysxY32VEvZmyc/rwQZY/2x3iBAkbrswhacRHhzyF4TOtbH3oSMhGqIQNGW0kUEHf9Zz8eDOZ05RFAAPtXPNAbcDuiLWZdRwYx7p3I6vFh7RA5NpIlWvkvhduTPMwSP3txV4pNJ2I+J4IEn6jgu/JoUxcVKLek4tpEkSqjYj/isVWFXxPRl+Jcg1/yMTUJI7L49jOdFPz7C5SvibJlqvLn6PgPzuw9o5gvzyJY8rr4MQk9qFztNQ404SEbAwDWA+RlrOfPe/ZjNmmBlOT2IcHaTu8n5Rgq+D50E3R+jLya7roGR73uRbHmJ3+91vJX/vYNA8ewAjVjz7C8t3tWAfGcXj3mibGsZ3poOjBR2YI2BI2wFZXScJDh6jvGsR+2a9Mhs7RtLuUhBkqUwkbMtpIoIq+MohoowwS2kig9Q1EQhvtewFIxEVl6j11UMdvJFDF99QgyBtijUaj0Wg0Go3m6mHOadc0Go1Go9FoNJq/B3SDWKPRaDQajUZzVTO3leo0mr8DUjMz3LOk54r9kw7aFFyI6OtNiEw3s2Kc/mPdIRcT0MwVrU0ASRZyUqeZiBcOE3ZOn+hVNkXX1xVzejp3uzIvzBHH8HlautQf/6qJHD2GWHPVUvduC1uXzHzedPQ355CyQ+Z6NC7Cy3QzPcEzK2giRWsTgF+a0TlxhbIsXe3MPvNAIPauI8RtVHcxCY0cesiERqPRaDQajeaqRr8h1mg0Go1Go9Fc1eg3xBqNRqPRaDSaq5r/B4NfWAM/ty/kAAAAAElFTkSuQmCC;" vertex="1" parent="1">
                    <mxGeometry x="-2158.91" y="210" width="278.91" height="13" as="geometry"/>
                </mxCell>
                <mxCell id="19" value="" style="edgeStyle=none;html=1;" edge="1" parent="1" source="14" target="11">
                    <mxGeometry relative="1" as="geometry"/>
                </mxCell>
                <mxCell id="14" value="" style="rounded=0;whiteSpace=wrap;html=1;fillColor=#f5f5f5;fontColor=#333333;strokeColor=#666666;" vertex="1" parent="1">
                    <mxGeometry x="-1590" y="80" width="130" height="300" as="geometry"/>
                </mxCell>
                <mxCell id="15" value="Ram" style="rounded=0;whiteSpace=wrap;html=1;fillColor=#dae8fc;strokeColor=#6c8ebf;" vertex="1" parent="1">
                    <mxGeometry x="-1590" y="60" width="50" height="20" as="geometry"/>
                </mxCell>
            </root>
        </mxGraphModel>
    </diagram>
</mxfile>